# xmcd
#
# Track frame offsets: 
#        150
#        11421
#        23247
#        34116
#        45808
#        55853
#        66116
#        76583
#        87650
#        98235
#        110014
#        121354
#        131679
#        142449
#        154921
#        165291
#        176294
#        186893
#        197168
#
# Disc length: 2770 seconds
#
# Revision: 0
# Processed by: cddbd v1.5.1PL0 Copyright (c) Steve Scherf et al.
# Submitted via: ExactAudioCopy v0.95a5
#
DISCID=f90ad013
DTITLE=Robert Johnson - Deal With the Devil Vol 2 - the Dallas recordi
DTITLE=ngs
DYEAR=1937
DGENRE=Blues
TTITLE0=Stones in my passway
TTITLE1=I'm a steady rollin' man
TTITLE2=From four till late
TTITLE3=Hell hound on my trail
TTITLE4=Little Queen of spades
TTITLE5=Little Queen of spades
TTITLE6=Malted Milk
TTITLE7=Drunken Hearted Man
TTITLE8=Drunken Hearted Man
TTITLE9=Me and the devil blues
TTITLE10=Me and the devil blues
TTITLE11=Stop Breaking' Down Blues
TTITLE12=Stop Breaking' Down Blues
TTITLE13=Travelling Riverside Blues
TTITLE14=Honeymoon blues
TTITLE15=Love in vain
TTITLE16=Love in vain
TTITLE17=Milkcow's Calf Blues
TTITLE18=Milkcow's Calf Blues
EXTD=
EXTT0=
EXTT1=
EXTT2=
EXTT3=
EXTT4=
EXTT5=
EXTT6=
EXTT7=
EXTT8=
EXTT9=
EXTT10=
EXTT11=
EXTT12=
EXTT13=
EXTT14=
EXTT15=
EXTT16=
EXTT17=
EXTT18=
PLAYORDER=
